solid 20mmplate
facet normal 0.0 0.0 1.0
   outer loop
      vertex -6193.15233434997 6874.51383696674 0.0
      vertex -6193.27392803887 6895.89024120401 0.0
      vertex -6193.27392803887 6873.59024120419 0.0
   endloop
endfacet
facet normal 0.0 0.0 1.0
   outer loop
      vertex -6193.27392803887 6895.89024120401 0.0
      vertex -6193.15233434997 6874.51383696674 0.0
      vertex -6193.15233434997 6894.96664544146 0.0
   endloop
endfacet
facet normal 0.0 0.0 1.0
   outer loop
      vertex -6193.15233434997 6894.96664544146 0.0
      vertex -6193.15233434997 6874.51383696674 0.0
      vertex -6192.79583969222 6894.10599120381 0.0
   endloop
endfacet
facet normal 0.0 0.0 1.0
   outer loop
      vertex -6192.79583969222 6894.10599120381 0.0
      vertex -6193.15233434997 6874.51383696674 0.0
      vertex -6192.79583969222 6875.37449120439 0.0
   endloop
endfacet
facet normal 0.0 0.0 1.0
   outer loop
      vertex -6192.79583969222 6894.10599120381 0.0
      vertex -6192.79583969222 6875.37449120439 0.0
      vertex -6192.22873858742 6876.11355175314 0.0
   endloop
endfacet
facet normal 0.0 0.0 1.0
   outer loop
      vertex -6192.79583969222 6894.10599120381 0.0
      vertex -6192.22873858742 6876.11355175314 0.0
      vertex -6192.22873858742 6893.36693065506 0.0
   endloop
endfacet
facet normal 0.0 0.0 1.0
   outer loop
      vertex -6192.22873858742 6893.36693065506 0.0
      vertex -6192.22873858742 6876.11355175314 0.0
      vertex -6191.48967803867 6876.68065285794 0.0
   endloop
endfacet
facet normal 0.0 0.0 1.0
   outer loop
      vertex -6192.22873858742 6893.36693065506 0.0
      vertex -6191.48967803867 6876.68065285794 0.0
      vertex -6191.48967803867 6892.79982955026 0.0
   endloop
endfacet
facet normal 0.0 0.0 1.0
   outer loop
      vertex -6191.48967803867 6892.79982955026 0.0
      vertex -6191.48967803867 6876.68065285794 0.0
      vertex -6190.62902380102 6877.03714751569 0.0
   endloop
endfacet
facet normal 0.0 0.0 1.0
   outer loop
      vertex -6191.48967803867 6892.79982955026 0.0
      vertex -6190.62902380102 6877.03714751569 0.0
      vertex -6190.62902380102 6892.44333489251 0.0
   endloop
endfacet
facet normal 0.0 0.0 1.0
   outer loop
      vertex -6190.62902380102 6892.44333489251 0.0
      vertex -6190.62902380102 6877.03714751569 0.0
      vertex -6189.70542803847 6877.15874120459 0.0
   endloop
endfacet
facet normal 0.0 0.0 1.0
   outer loop
      vertex -6190.62902380102 6892.44333489251 0.0
      vertex -6189.70542803847 6877.15874120459 0.0
      vertex -6189.70542803847 6892.32174120361 0.0
   endloop
endfacet
facet normal 0.0 0.0 1.0
   outer loop
      vertex -6189.70542803847 6892.32174120361 0.0
      vertex -6189.70542803847 6877.15874120459 0.0
      vertex -6188.78183227592 6877.03714751569 0.0
   endloop
endfacet
facet normal 0.0 0.0 1.0
   outer loop
      vertex -6189.70542803847 6892.32174120361 0.0
      vertex -6188.78183227592 6877.03714751569 0.0
      vertex -6188.78183227592 6892.44333489251 0.0
   endloop
endfacet
facet normal 0.0 0.0 1.0
   outer loop
      vertex -6188.78183227592 6892.44333489251 0.0
      vertex -6188.78183227592 6877.03714751569 0.0
      vertex -6187.92117803827 6876.68065285794 0.0
   endloop
endfacet
facet normal 0.0 0.0 1.0
   outer loop
      vertex -6188.78183227592 6892.44333489251 0.0
      vertex -6187.92117803827 6876.68065285794 0.0
      vertex -6187.92117803827 6892.79982955026 0.0
   endloop
endfacet
facet normal 0.0 0.0 1.0
   outer loop
      vertex -6187.92117803827 6892.79982955026 0.0
      vertex -6187.92117803827 6876.68065285794 0.0
      vertex -6187.18211748952 6876.11355175314 0.0
   endloop
endfacet
facet normal 0.0 0.0 1.0
   outer loop
      vertex -6187.92117803827 6892.79982955026 0.0
      vertex -6187.18211748952 6876.11355175314 0.0
      vertex -6187.18211748952 6893.36693065506 0.0
   endloop
endfacet
facet normal 0.0 0.0 1.0
   outer loop
      vertex -6187.18211748952 6893.36693065506 0.0
      vertex -6187.18211748952 6876.11355175314 0.0
      vertex -6186.61501638472 6875.37449120439 0.0
   endloop
endfacet
facet normal 0.0 0.0 1.0
   outer loop
      vertex -6187.18211748952 6893.36693065506 0.0
      vertex -6186.61501638472 6875.37449120439 0.0
      vertex -6186.61501638472 6894.10599120381 0.0
   endloop
endfacet
facet normal 0.0 0.0 1.0
   outer loop
      vertex -6186.61501638472 6894.10599120381 0.0
      vertex -6186.61501638472 6875.37449120439 0.0
      vertex -6186.25852172697 6874.51383696674 0.0
   endloop
endfacet
facet normal 0.0 0.0 1.0
   outer loop
      vertex -6186.61501638472 6894.10599120381 0.0
      vertex -6186.25852172697 6874.51383696674 0.0
      vertex -6186.25852172697 6894.96664544146 0.0
   endloop
endfacet
facet normal 0.0 0.0 1.0
   outer loop
      vertex -6186.25852172697 6894.96664544146 0.0
      vertex -6186.25852172697 6874.51383696674 0.0
      vertex -6186.13692803807 6895.89024120401 0.0
   endloop
endfacet
facet normal 0.0 0.0 1.0
   outer loop
      vertex -6186.13692803807 6895.89024120401 0.0
      vertex -6186.25852172697 6874.51383696674 0.0
      vertex -6186.13692803807 6873.59024120419 0.0
   endloop
endfacet
facet normal 0.0 0.0 1.0
   outer loop
      vertex -6193.15233434997 6852.21383696692 0.0
      vertex -6193.27392803887 6873.59024120419 0.0
      vertex -6193.27392803887 6851.29024120437 0.0
   endloop
endfacet
facet normal 0.0 0.0 1.0
   outer loop
      vertex -6193.27392803887 6873.59024120419 0.0
      vertex -6193.15233434997 6852.21383696692 0.0
      vertex -6193.15233434997 6872.66664544164 0.0
   endloop
endfacet
facet normal 0.0 0.0 1.0
   outer loop
      vertex -6193.15233434997 6872.66664544164 0.0
      vertex -6193.15233434997 6852.21383696692 0.0
      vertex -6192.79583969222 6853.07449120457 0.0
   endloop
endfacet
facet normal 0.0 0.0 1.0
   outer loop
      vertex -6193.15233434997 6872.66664544164 0.0
      vertex -6192.79583969222 6853.07449120457 0.0
      vertex -6192.79583969222 6871.80599120399 0.0
   endloop
endfacet
facet normal 0.0 0.0 1.0
   outer loop
      vertex -6192.79583969222 6871.80599120399 0.0
      vertex -6192.79583969222 6853.07449120457 0.0
      vertex -6192.22873858742 6853.81355175332 0.0
   endloop
endfacet
facet normal 0.0 0.0 1.0
   outer loop
      vertex -6192.79583969222 6871.80599120399 0.0
      vertex -6192.22873858742 6853.81355175332 0.0
      vertex -6192.22873858742 6871.06693065524 0.0
   endloop
endfacet
facet normal 0.0 0.0 1.0
   outer loop
      vertex -6192.22873858742 6871.06693065524 0.0
      vertex -6192.22873858742 6853.81355175332 0.0
      vertex -6191.48967803867 6854.38065285812 0.0
   endloop
endfacet
facet normal 0.0 0.0 1.0
   outer loop
      vertex -6192.22873858742 6871.06693065524 0.0
      vertex -6191.48967803867 6854.38065285812 0.0
      vertex -6191.48967803867 6870.49982955044 0.0
   endloop
endfacet
facet normal 0.0 0.0 1.0
   outer loop
      vertex -6191.48967803867 6870.49982955044 0.0
      vertex -6191.48967803867 6854.38065285812 0.0
      vertex -6190.62902380102 6854.73714751587 0.0
   endloop
endfacet
facet normal 0.0 0.0 1.0
   outer loop
      vertex -6191.48967803867 6870.49982955044 0.0
      vertex -6190.62902380102 6854.73714751587 0.0
      vertex -6190.62902380102 6870.14333489269 0.0
   endloop
endfacet
facet normal 0.0 0.0 1.0
   outer loop
      vertex -6190.62902380102 6870.14333489269 0.0
      vertex -6190.62902380102 6854.73714751587 0.0
      vertex -6189.70542803847 6854.85874120477 0.0
   endloop
endfacet
facet normal 0.0 0.0 1.0
   outer loop
      vertex -6190.62902380102 6870.14333489269 0.0
      vertex -6189.70542803847 6854.85874120477 0.0
      vertex -6189.70542803847 6870.02174120379 0.0
   endloop
endfacet
facet normal 0.0 0.0 1.0
   outer loop
      vertex -6189.70542803847 6870.02174120379 0.0
      vertex -6189.70542803847 6854.85874120477 0.0
      vertex -6188.78183227592 6854.73714751587 0.0
   endloop
endfacet
facet normal 0.0 0.0 1.0
   outer loop
      vertex -6189.70542803847 6870.02174120379 0.0
      vertex -6188.78183227592 6854.73714751587 0.0
      vertex -6188.78183227592 6870.14333489269 0.0
   endloop
endfacet
facet normal 0.0 0.0 1.0
   outer loop
      vertex -6188.78183227592 6870.14333489269 0.0
      vertex -6188.78183227592 6854.73714751587 0.0
      vertex -6187.92117803827 6854.38065285812 0.0
   endloop
endfacet
facet normal 0.0 0.0 1.0
   outer loop
      vertex -6188.78183227592 6870.14333489269 0.0
      vertex -6187.92117803827 6854.38065285812 0.0
      vertex -6187.92117803827 6870.49982955044 0.0
   endloop
endfacet
facet normal 0.0 0.0 1.0
   outer loop
      vertex -6187.92117803827 6870.49982955044 0.0
      vertex -6187.92117803827 6854.38065285812 0.0
      vertex -6187.18211748952 6853.81355175332 0.0
   endloop
endfacet
facet normal 0.0 0.0 1.0
   outer loop
      vertex -6187.92117803827 6870.49982955044 0.0
      vertex -6187.18211748952 6853.81355175332 0.0
      vertex -6187.18211748952 6871.06693065524 0.0
   endloop
endfacet
facet normal 0.0 0.0 1.0
   outer loop
      vertex -6187.18211748952 6871.06693065524 0.0
      vertex -6187.18211748952 6853.81355175332 0.0
      vertex -6186.61501638472 6853.07449120457 0.0
   endloop
endfacet
facet normal 0.0 0.0 1.0
   outer loop
      vertex -6187.18211748952 6871.06693065524 0.0
      vertex -6186.61501638472 6853.07449120457 0.0
      vertex -6186.61501638472 6871.80599120399 0.0
   endloop
endfacet
facet normal 0.0 0.0 1.0
   outer loop
      vertex -6186.61501638472 6871.80599120399 0.0
      vertex -6186.61501638472 6853.07449120457 0.0
      vertex -6186.25852172697 6852.21383696692 0.0
   endloop
endfacet
facet normal 0.0 0.0 1.0
   outer loop
      vertex -6186.61501638472 6871.80599120399 0.0
      vertex -6186.25852172697 6852.21383696692 0.0
      vertex -6186.25852172697 6872.66664544164 0.0
   endloop
endfacet
facet normal 0.0 0.0 1.0
   outer loop
      vertex -6186.25852172697 6872.66664544164 0.0
      vertex -6186.25852172697 6852.21383696692 0.0
      vertex -6186.13692803807 6851.29024120437 0.0
   endloop
endfacet
facet normal 0.0 0.0 1.0
   outer loop
      vertex -6186.25852172697 6872.66664544164 0.0
      vertex -6186.13692803807 6851.29024120437 0.0
      vertex -6186.13692803807 6873.59024120419 0.0
   endloop
endfacet
facet normal 0.0 0.0 1.0
   outer loop
      vertex -6169.86853889599 6874.25022976928 0.0
      vertex -6169.90542803991 6883.59024120415 0.0
      vertex -6169.95542803897 6873.59024120419 0.0
   endloop
endfacet
facet normal 0.0 0.0 1.0
   outer loop
      vertex -6169.90542803991 6883.59024120415 0.0
      vertex -6169.86853889599 6874.25022976928 0.0
      vertex -6169.82024260559 6882.94319359107 0.0
   endloop
endfacet
facet normal 0.0 0.0 1.0
   outer loop
      vertex -6169.82024260559 6882.94319359107 0.0
      vertex -6169.86853889599 6874.25022976928 0.0
      vertex -6169.61379281858 6874.86524120435 0.0
   endloop
endfacet
facet normal 0.0 0.0 1.0
   outer loop
      vertex -6169.82024260559 6882.94319359107 0.0
      vertex -6169.61379281858 6874.86524120435 0.0
      vertex -6169.5704915492 6882.34024120352 0.0
   endloop
endfacet
facet normal 0.0 0.0 1.0
   outer loop
      vertex -6169.5704915492 6882.34024120352 0.0
      vertex -6169.61379281858 6874.86524120435 0.0
      vertex -6169.2085503309 6875.39336349644 0.0
   endloop
endfacet
facet normal 0.0 0.0 1.0
   outer loop
      vertex -6169.5704915492 6882.34024120352 0.0
      vertex -6169.2085503309 6875.39336349644 0.0
      vertex -6169.17319499251 6881.82247425029 0.0
   endloop
endfacet
facet normal 0.0 0.0 1.0
   outer loop
      vertex -6169.17319499251 6881.82247425029 0.0
      vertex -6169.2085503309 6875.39336349644 0.0
      vertex -6168.68042803881 6875.79860598412 0.0
   endloop
endfacet
facet normal 0.0 0.0 1.0
   outer loop
      vertex -6169.17319499251 6881.82247425029 0.0
      vertex -6168.68042803881 6875.79860598412 0.0
      vertex -6168.65542803928 6881.4251776936 0.0
   endloop
endfacet
facet normal 0.0 0.0 1.0
   outer loop
      vertex -6168.65542803928 6881.4251776936 0.0
      vertex -6168.68042803881 6875.79860598412 0.0
      vertex -6168.06541660374 6876.05335206154 0.0
   endloop
endfacet
facet normal 0.0 0.0 1.0
   outer loop
      vertex -6168.65542803928 6881.4251776936 0.0
      vertex -6168.06541660374 6876.05335206154 0.0
      vertex -6168.05247565173 6881.17542663721 0.0
   endloop
endfacet
facet normal 0.0 0.0 1.0
   outer loop
      vertex -6168.05247565173 6881.17542663721 0.0
      vertex -6168.06541660374 6876.05335206154 0.0
      vertex -6167.40542803865 6876.14024120451 0.0
   endloop
endfacet
facet normal 0.0 0.0 1.0
   outer loop
      vertex -6168.05247565173 6881.17542663721 0.0
      vertex -6167.40542803865 6876.14024120451 0.0
      vertex -6167.40542803865 6881.09024120289 0.0
   endloop
endfacet
facet normal 0.0 0.0 1.0
   outer loop
      vertex -6167.40542803865 6881.09024120289 0.0
      vertex -6167.40542803865 6876.14024120451 0.0
      vertex -6166.75838042557 6881.17542663721 0.0
   endloop
endfacet
facet normal 0.0 0.0 1.0
   outer loop
      vertex -6166.75838042557 6881.17542663721 0.0
      vertex -6167.40542803865 6876.14024120451 0.0
      vertex -6166.74543947355 6876.05335206154 0.0
   endloop
endfacet
facet normal 0.0 0.0 1.0
   outer loop
      vertex -6166.75838042557 6881.17542663721 0.0
      vertex -6166.74543947355 6876.05335206154 0.0
      vertex -6166.15542803802 6881.4251776936 0.0
   endloop
endfacet
facet normal 0.0 0.0 1.0
   outer loop
      vertex -6166.15542803802 6881.4251776936 0.0
      vertex -6166.74543947355 6876.05335206154 0.0
      vertex -6166.13042803849 6875.79860598412 0.0
   endloop
endfacet
facet normal 0.0 0.0 1.0
   outer loop
      vertex -6166.15542803802 6881.4251776936 0.0
      vertex -6166.13042803849 6875.79860598412 0.0
      vertex -6165.63766108479 6881.82247425029 0.0
   endloop
endfacet
facet normal 0.0 0.0 1.0
   outer loop
      vertex -6165.63766108479 6881.82247425029 0.0
      vertex -6166.13042803849 6875.79860598412 0.0
      vertex -6165.6023057464 6875.39336349644 0.0
   endloop
endfacet
facet normal 0.0 0.0 1.0
   outer loop
      vertex -6165.63766108479 6881.82247425029 0.0
      vertex -6165.6023057464 6875.39336349644 0.0
      vertex -6165.2403645281 6882.34024120352 0.0
   endloop
endfacet
facet normal 0.0 0.0 1.0
   outer loop
      vertex -6165.2403645281 6882.34024120352 0.0
      vertex -6165.6023057464 6875.39336349644 0.0
      vertex -6165.19706325872 6874.86524120435 0.0
   endloop
endfacet
facet normal 0.0 0.0 1.0
   outer loop
      vertex -6165.2403645281 6882.34024120352 0.0
      vertex -6165.19706325872 6874.86524120435 0.0
      vertex -6164.99061347171 6882.94319359107 0.0
   endloop
endfacet
facet normal 0.0 0.0 1.0
   outer loop
      vertex -6164.99061347171 6882.94319359107 0.0
      vertex -6165.19706325872 6874.86524120435 0.0
      vertex -6164.9423171813 6874.25022976928 0.0
   endloop
endfacet
facet normal 0.0 0.0 1.0
   outer loop
      vertex -6164.99061347171 6882.94319359107 0.0
      vertex -6164.9423171813 6874.25022976928 0.0
      vertex -6164.90542803739 6883.59024120415 0.0
   endloop
endfacet
facet normal 0.0 0.0 1.0
   outer loop
      vertex -6164.90542803739 6883.59024120415 0.0
      vertex -6164.9423171813 6874.25022976928 0.0
      vertex -6164.85542803833 6873.59024120419 0.0
   endloop
endfacet
facet normal 0.0 0.0 1.0
   outer loop
      vertex -6164.90542803739 6883.59024120415 0.0
      vertex -6164.85542803833 6873.59024120419 0.0
      vertex -6164.90542803739 6895.89024120401 0.0
   endloop
endfacet
facet normal 0.0 0.0 1.0
   outer loop
      vertex -6207.31987665207 6842.28497928213 0.0
      vertex -6207.40542803833 6903.59024120405 0.0
      vertex -6207.40542803833 6843.59024120433 0.0
   endloop
endfacet
facet normal 0.0 0.0 1.0
   outer loop
      vertex -6207.40542803833 6903.59024120405 0.0
      vertex -6207.31987665207 6842.28497928213 0.0
      vertex -6207.31987665207 6904.89550312624 0.0
   endloop
endfacet
facet normal 0.0 0.0 1.0
   outer loop
      vertex -6207.31987665207 6904.89550312624 0.0
      vertex -6207.31987665207 6842.28497928213 0.0
      vertex -6207.06468630122 6841.00205075332 0.0
   endloop
endfacet
facet normal 0.0 0.0 1.0
   outer loop
      vertex -6207.31987665207 6904.89550312624 0.0
      vertex -6207.06468630122 6841.00205075332 0.0
      vertex -6207.06468630122 6906.17843165506 0.0
   endloop
endfacet
facet normal 0.0 0.0 1.0
   outer loop
      vertex -6207.06468630122 6906.17843165506 0.0
      vertex -6207.06468630122 6841.00205075332 0.0
      vertex -6206.64422336344 6839.76340688069 0.0
   endloop
endfacet
facet normal 0.0 0.0 1.0
   outer loop
      vertex -6207.06468630122 6906.17843165506 0.0
      vertex -6206.64422336344 6839.76340688069 0.0
      vertex -6206.64422336344 6907.41707552768 0.0
   endloop
endfacet
facet normal 0.0 0.0 1.0
   outer loop
      vertex -6206.64422336344 6907.41707552768 0.0
      vertex -6206.64422336344 6839.76340688069 0.0
      vertex -6206.06568207618 6838.59024120435 0.0
   endloop
endfacet
facet normal 0.0 0.0 1.0
   outer loop
      vertex -6206.64422336344 6907.41707552768 0.0
      vertex -6206.06568207618 6838.59024120435 0.0
      vertex -6206.06568207618 6908.59024120403 0.0
   endloop
endfacet
facet normal 0.0 0.0 1.0
   outer loop
      vertex -6206.06568207618 6908.59024120403 0.0
      vertex -6206.06568207618 6838.59024120435 0.0
      vertex -6205.33896144125 6837.50262691427 0.0
   endloop
endfacet
facet normal 0.0 0.0 1.0
   outer loop
      vertex -6206.06568207618 6908.59024120403 0.0
      vertex -6205.33896144125 6837.50262691427 0.0
      vertex -6205.33896144125 6909.67785549411 0.0
   endloop
endfacet
facet normal 0.0 0.0 1.0
   outer loop
      vertex -6205.33896144125 6909.67785549411 0.0
      vertex -6205.33896144125 6837.50262691427 0.0
      vertex -6204.47649585021 6836.51917339249 0.0
   endloop
endfacet
facet normal 0.0 0.0 1.0
   outer loop
      vertex -6205.33896144125 6909.67785549411 0.0
      vertex -6204.47649585021 6836.51917339249 0.0
      vertex -6204.47649585021 6910.66130901589 0.0
   endloop
endfacet
facet normal 0.0 0.0 1.0
   outer loop
      vertex -6204.47649585021 6910.66130901589 0.0
      vertex -6204.47649585021 6836.51917339249 0.0
      vertex -6203.49304232843 6835.65670780145 0.0
   endloop
endfacet
facet normal 0.0 0.0 1.0
   outer loop
      vertex -6204.47649585021 6910.66130901589 0.0
      vertex -6203.49304232843 6835.65670780145 0.0
      vertex -6203.49304232843 6911.52377460693 0.0
   endloop
endfacet
facet normal 0.0 0.0 1.0
   outer loop
      vertex -6203.49304232843 6911.52377460693 0.0
      vertex -6203.49304232843 6835.65670780145 0.0
      vertex -6202.40542803835 6834.92998716652 0.0
   endloop
endfacet
facet normal 0.0 0.0 1.0
   outer loop
      vertex -6203.49304232843 6911.52377460693 0.0
      vertex -6202.40542803835 6834.92998716652 0.0
      vertex -6202.40542803835 6912.25049524186 0.0
   endloop
endfacet
facet normal 0.0 0.0 1.0
   outer loop
      vertex -6202.40542803835 6912.25049524186 0.0
      vertex -6202.40542803835 6834.92998716652 0.0
      vertex -6201.232262362 6834.35144587925 0.0
   endloop
endfacet
facet normal 0.0 0.0 1.0
   outer loop
      vertex -6202.40542803835 6912.25049524186 0.0
      vertex -6201.232262362 6834.35144587925 0.0
      vertex -6201.232262362 6912.82903652913 0.0
   endloop
endfacet
facet normal 0.0 0.0 1.0
   outer loop
      vertex -6201.232262362 6912.82903652913 0.0
      vertex -6201.232262362 6834.35144587925 0.0
      vertex -6199.99361848938 6833.93098294148 0.0
   endloop
endfacet
facet normal 0.0 0.0 1.0
   outer loop
      vertex -6201.232262362 6912.82903652913 0.0
      vertex -6199.99361848938 6833.93098294148 0.0
      vertex -6199.99361848938 6913.2494994669 0.0
   endloop
endfacet
facet normal 0.0 0.0 1.0
   outer loop
      vertex -6199.99361848938 6913.2494994669 0.0
      vertex -6199.99361848938 6833.93098294148 0.0
      vertex -6198.71068996056 6833.67579259063 0.0
   endloop
endfacet
facet normal 0.0 0.0 1.0
   outer loop
      vertex -6199.99361848938 6913.2494994669 0.0
      vertex -6198.71068996056 6833.67579259063 0.0
      vertex -6198.71068996056 6913.50468981775 0.0
   endloop
endfacet
facet normal 0.0 0.0 1.0
   outer loop
      vertex -6198.71068996056 6913.50468981775 0.0
      vertex -6198.71068996056 6833.67579259063 0.0
      vertex -6197.40542803837 6833.59024120437 0.0
   endloop
endfacet
facet normal 0.0 0.0 1.0
   outer loop
      vertex -6198.71068996056 6913.50468981775 0.0
      vertex -6197.40542803837 6833.59024120437 0.0
      vertex -6197.40542803837 6913.59024120401 0.0
   endloop
endfacet
facet normal 0.0 0.0 1.0
   outer loop
      vertex -6197.40542803837 6913.59024120401 0.0
      vertex -6197.40542803837 6833.59024120437 0.0
      vertex -6193.27392803887 6851.29024120437 0.0
   endloop
endfacet
facet normal 0.0 0.0 1.0
   outer loop
      vertex -6193.27392803887 6851.29024120437 0.0
      vertex -6197.40542803837 6833.59024120437 0.0
      vertex -6193.15233434997 6850.36664544182 0.0
   endloop
endfacet
facet normal 0.0 0.0 1.0
   outer loop
      vertex -6193.15233434997 6850.36664544182 0.0
      vertex -6197.40542803837 6833.59024120437 0.0
      vertex -6192.79583969222 6849.50599120417 0.0
   endloop
endfacet
facet normal 0.0 0.0 1.0
   outer loop
      vertex -6192.79583969222 6849.50599120417 0.0
      vertex -6197.40542803837 6833.59024120437 0.0
      vertex -6192.22873858742 6848.76693065542 0.0
   endloop
endfacet
facet normal 0.0 0.0 1.0
   outer loop
      vertex -6192.22873858742 6848.76693065542 0.0
      vertex -6197.40542803837 6833.59024120437 0.0
      vertex -6191.48967803867 6848.19982955062 0.0
   endloop
endfacet
facet normal 0.0 0.0 1.0
   outer loop
      vertex -6191.48967803867 6848.19982955062 0.0
      vertex -6197.40542803837 6833.59024120437 0.0
      vertex -6190.62902380102 6847.84333489287 0.0
   endloop
endfacet
facet normal 0.0 0.0 1.0
   outer loop
      vertex -6190.62902380102 6847.84333489287 0.0
      vertex -6197.40542803837 6833.59024120437 0.0
      vertex -6137.40542803893 6833.59024120437 0.0
   endloop
endfacet
facet normal 0.0 0.0 1.0
   outer loop
      vertex -6190.62902380102 6847.84333489287 0.0
      vertex -6137.40542803893 6833.59024120437 0.0
      vertex -6189.70542803847 6847.72174120397 0.0
   endloop
endfacet
facet normal 0.0 0.0 1.0
   outer loop
      vertex -6189.70542803847 6847.72174120397 0.0
      vertex -6137.40542803893 6833.59024120437 0.0
      vertex -6188.78183227592 6847.84333489287 0.0
   endloop
endfacet
facet normal 0.0 0.0 1.0
   outer loop
      vertex -6188.78183227592 6847.84333489287 0.0
      vertex -6137.40542803893 6833.59024120437 0.0
      vertex -6187.92117803827 6848.19982955062 0.0
   endloop
endfacet
facet normal 0.0 0.0 1.0
   outer loop
      vertex -6187.92117803827 6848.19982955062 0.0
      vertex -6137.40542803893 6833.59024120437 0.0
      vertex -6187.18211748952 6848.76693065542 0.0
   endloop
endfacet
facet normal 0.0 0.0 1.0
   outer loop
      vertex -6187.18211748952 6848.76693065542 0.0
      vertex -6137.40542803893 6833.59024120437 0.0
      vertex -6186.61501638472 6849.50599120417 0.0
   endloop
endfacet
facet normal 0.0 0.0 1.0
   outer loop
      vertex -6186.61501638472 6849.50599120417 0.0
      vertex -6137.40542803893 6833.59024120437 0.0
      vertex -6186.25852172697 6850.36664544182 0.0
   endloop
endfacet
facet normal 0.0 0.0 1.0
   outer loop
      vertex -6186.25852172697 6850.36664544182 0.0
      vertex -6137.40542803893 6833.59024120437 0.0
      vertex -6186.13692803807 6851.29024120437 0.0
   endloop
endfacet
facet normal 0.0 0.0 1.0
   outer loop
      vertex -6186.13692803807 6851.29024120437 0.0
      vertex -6137.40542803893 6833.59024120437 0.0
      vertex -6168.65542803928 6849.12517769382 0.0
   endloop
endfacet
facet normal 0.0 0.0 1.0
   outer loop
      vertex -6186.13692803807 6851.29024120437 0.0
      vertex -6168.65542803928 6849.12517769382 0.0
      vertex -6169.17319499251 6849.52247425051 0.0
   endloop
endfacet
facet normal 0.0 0.0 1.0
   outer loop
      vertex -6186.13692803807 6851.29024120437 0.0
      vertex -6169.17319499251 6849.52247425051 0.0
      vertex -6169.5704915492 6850.04024120374 0.0
   endloop
endfacet
facet normal 0.0 0.0 1.0
   outer loop
      vertex -6186.13692803807 6851.29024120437 0.0
      vertex -6169.5704915492 6850.04024120374 0.0
      vertex -6186.13692803807 6873.59024120419 0.0
   endloop
endfacet
facet normal 0.0 0.0 1.0
   outer loop
      vertex -6186.13692803807 6873.59024120419 0.0
      vertex -6169.5704915492 6850.04024120374 0.0
      vertex -6179.61379281854 6872.31524120403 0.0
   endloop
endfacet
facet normal 0.0 0.0 1.0
   outer loop
      vertex -6186.13692803807 6873.59024120419 0.0
      vertex -6179.61379281854 6872.31524120403 0.0
      vertex -6179.86853889595 6872.9302526391 0.0
   endloop
endfacet
facet normal 0.0 0.0 1.0
   outer loop
      vertex -6186.13692803807 6873.59024120419 0.0
      vertex -6179.86853889595 6872.9302526391 0.0
      vertex -6186.13692803807 6895.89024120401 0.0
   endloop
endfacet
facet normal 0.0 0.0 1.0
   outer loop
      vertex -6186.13692803807 6895.89024120401 0.0
      vertex -6179.86853889595 6872.9302526391 0.0
      vertex -6179.95542803893 6873.59024120419 0.0
   endloop
endfacet
facet normal 0.0 0.0 1.0
   outer loop
      vertex -6179.61379281854 6872.31524120403 0.0
      vertex -6169.5704915492 6850.04024120374 0.0
      vertex -6179.20855033086 6871.78711891194 0.0
   endloop
endfacet
facet normal 0.0 0.0 1.0
   outer loop
      vertex -6179.20855033086 6871.78711891194 0.0
      vertex -6169.5704915492 6850.04024120374 0.0
      vertex -6178.68042803877 6871.38187642426 0.0
   endloop
endfacet
facet normal 0.0 0.0 1.0
   outer loop
      vertex -6178.68042803877 6871.38187642426 0.0
      vertex -6169.5704915492 6850.04024120374 0.0
      vertex -6169.82024260559 6850.64319359129 0.0
   endloop
endfacet
facet normal 0.0 0.0 1.0
   outer loop
      vertex -6178.68042803877 6871.38187642426 0.0
      vertex -6169.82024260559 6850.64319359129 0.0
      vertex -6178.0654166037 6871.12713034684 0.0
   endloop
endfacet
facet normal 0.0 0.0 1.0
   outer loop
      vertex -6178.0654166037 6871.12713034684 0.0
      vertex -6169.82024260559 6850.64319359129 0.0
      vertex -6177.40542803861 6871.04024120387 0.0
   endloop
endfacet
facet normal 0.0 0.0 1.0
   outer loop
      vertex -6177.40542803861 6871.04024120387 0.0
      vertex -6169.82024260559 6850.64319359129 0.0
      vertex -6176.74543947351 6871.12713034684 0.0
   endloop
endfacet
facet normal 0.0 0.0 1.0
   outer loop
      vertex -6176.74543947351 6871.12713034684 0.0
      vertex -6169.82024260559 6850.64319359129 0.0
      vertex -6176.13042803845 6871.38187642426 0.0
   endloop
endfacet
facet normal 0.0 0.0 1.0
   outer loop
      vertex -6176.13042803845 6871.38187642426 0.0
      vertex -6169.82024260559 6850.64319359129 0.0
      vertex -6175.60230574636 6871.78711891194 0.0
   endloop
endfacet
facet normal 0.0 0.0 1.0
   outer loop
      vertex -6175.60230574636 6871.78711891194 0.0
      vertex -6169.82024260559 6850.64319359129 0.0
      vertex -6175.19706325868 6872.31524120403 0.0
   endloop
endfacet
facet normal 0.0 0.0 1.0
   outer loop
      vertex -6175.19706325868 6872.31524120403 0.0
      vertex -6169.82024260559 6850.64319359129 0.0
      vertex -6174.94231718126 6872.9302526391 0.0
   endloop
endfacet
facet normal 0.0 0.0 1.0
   outer loop
      vertex -6174.94231718126 6872.9302526391 0.0
      vertex -6169.82024260559 6850.64319359129 0.0
      vertex -6174.85542803829 6873.59024120419 0.0
   endloop
endfacet
facet normal 0.0 0.0 1.0
   outer loop
      vertex -6174.85542803829 6873.59024120419 0.0
      vertex -6169.82024260559 6850.64319359129 0.0
      vertex -6169.90542803991 6851.29024120437 0.0
   endloop
endfacet
facet normal 0.0 0.0 1.0
   outer loop
      vertex -6174.85542803829 6873.59024120419 0.0
      vertex -6169.90542803991 6851.29024120437 0.0
      vertex -6169.95542803897 6873.59024120419 0.0
   endloop
endfacet
facet normal 0.0 0.0 1.0
   outer loop
      vertex -6168.65542803928 6849.12517769382 0.0
      vertex -6137.40542803893 6833.59024120437 0.0
      vertex -6168.05247565173 6848.87542663743 0.0
   endloop
endfacet
facet normal 0.0 0.0 1.0
   outer loop
      vertex -6168.05247565173 6848.87542663743 0.0
      vertex -6137.40542803893 6833.59024120437 0.0
      vertex -6167.40542803865 6848.79024120311 0.0
   endloop
endfacet
facet normal 0.0 0.0 1.0
   outer loop
      vertex -6167.40542803865 6848.79024120311 0.0
      vertex -6137.40542803893 6833.59024120437 0.0
      vertex -6166.75838042557 6848.87542663743 0.0
   endloop
endfacet
facet normal 0.0 0.0 1.0
   outer loop
      vertex -6166.75838042557 6848.87542663743 0.0
      vertex -6137.40542803893 6833.59024120437 0.0
      vertex -6166.15542803802 6849.12517769382 0.0
   endloop
endfacet
facet normal 0.0 0.0 1.0
   outer loop
      vertex -6166.15542803802 6849.12517769382 0.0
      vertex -6137.40542803893 6833.59024120437 0.0
      vertex -6165.63766108479 6849.52247425051 0.0
   endloop
endfacet
facet normal 0.0 0.0 1.0
   outer loop
      vertex -6165.63766108479 6849.52247425051 0.0
      vertex -6137.40542803893 6833.59024120437 0.0
      vertex -6165.2403645281 6850.04024120374 0.0
   endloop
endfacet
facet normal 0.0 0.0 1.0
   outer loop
      vertex -6165.2403645281 6850.04024120374 0.0
      vertex -6137.40542803893 6833.59024120437 0.0
      vertex -6164.99061347171 6850.64319359129 0.0
   endloop
endfacet
facet normal 0.0 0.0 1.0
   outer loop
      vertex -6164.99061347171 6850.64319359129 0.0
      vertex -6137.40542803893 6833.59024120437 0.0
      vertex -6164.90542803739 6851.29024120437 0.0
   endloop
endfacet
facet normal 0.0 0.0 1.0
   outer loop
      vertex -6164.90542803739 6851.29024120437 0.0
      vertex -6137.40542803893 6833.59024120437 0.0
      vertex -6164.90542803739 6863.59024120423 0.0
   endloop
endfacet
facet normal 0.0 0.0 1.0
   outer loop
      vertex -6164.90542803739 6863.59024120423 0.0
      vertex -6137.40542803893 6833.59024120437 0.0
      vertex -6164.85542803833 6873.59024120419 0.0
   endloop
endfacet
facet normal 0.0 0.0 1.0
   outer loop
      vertex -6164.85542803833 6873.59024120419 0.0
      vertex -6137.40542803893 6833.59024120437 0.0
      vertex -6147.27049154938 6850.04024120374 0.0
   endloop
endfacet
facet normal 0.0 0.0 1.0
   outer loop
      vertex -6164.85542803833 6873.59024120419 0.0
      vertex -6147.27049154938 6850.04024120374 0.0
      vertex -6159.61379281862 6872.31524120403 0.0
   endloop
endfacet
facet normal 0.0 0.0 1.0
   outer loop
      vertex -6164.85542803833 6873.59024120419 0.0
      vertex -6159.61379281862 6872.31524120403 0.0
      vertex -6159.86853889603 6872.9302526391 0.0
   endloop
endfacet
facet normal 0.0 0.0 1.0
   outer loop
      vertex -6164.85542803833 6873.59024120419 0.0
      vertex -6159.86853889603 6872.9302526391 0.0
      vertex -6159.95542803901 6873.59024120419 0.0
   endloop
endfacet
facet normal 0.0 0.0 1.0
   outer loop
      vertex -6159.61379281862 6872.31524120403 0.0
      vertex -6147.27049154938 6850.04024120374 0.0
      vertex -6159.20855033094 6871.78711891194 0.0
   endloop
endfacet
facet normal 0.0 0.0 1.0
   outer loop
      vertex -6159.20855033094 6871.78711891194 0.0
      vertex -6147.27049154938 6850.04024120374 0.0
      vertex -6158.68042803885 6871.38187642426 0.0
   endloop
endfacet
facet normal 0.0 0.0 1.0
   outer loop
      vertex -6158.68042803885 6871.38187642426 0.0
      vertex -6147.27049154938 6850.04024120374 0.0
      vertex -6158.06541660378 6871.12713034684 0.0
   endloop
endfacet
facet normal 0.0 0.0 1.0
   outer loop
      vertex -6158.06541660378 6871.12713034684 0.0
      vertex -6147.27049154938 6850.04024120374 0.0
      vertex -6157.40542803869 6871.04024120387 0.0
   endloop
endfacet
facet normal 0.0 0.0 1.0
   outer loop
      vertex -6157.40542803869 6871.04024120387 0.0
      vertex -6147.27049154938 6850.04024120374 0.0
      vertex -6156.74543947359 6871.12713034684 0.0
   endloop
endfacet
facet normal 0.0 0.0 1.0
   outer loop
      vertex -6156.74543947359 6871.12713034684 0.0
      vertex -6147.27049154938 6850.04024120374 0.0
      vertex -6156.13042803853 6871.38187642426 0.0
   endloop
endfacet
facet normal 0.0 0.0 1.0
   outer loop
      vertex -6156.13042803853 6871.38187642426 0.0
      vertex -6147.27049154938 6850.04024120374 0.0
      vertex -6147.52024260577 6850.64319359129 0.0
   endloop
endfacet
facet normal 0.0 0.0 1.0
   outer loop
      vertex -6156.13042803853 6871.38187642426 0.0
      vertex -6147.52024260577 6850.64319359129 0.0
      vertex -6155.60230574644 6871.78711891194 0.0
   endloop
endfacet
facet normal 0.0 0.0 1.0
   outer loop
      vertex -6155.60230574644 6871.78711891194 0.0
      vertex -6147.52024260577 6850.64319359129 0.0
      vertex -6155.19706325876 6872.31524120403 0.0
   endloop
endfacet
facet normal 0.0 0.0 1.0
   outer loop
      vertex -6155.19706325876 6872.31524120403 0.0
      vertex -6147.52024260577 6850.64319359129 0.0
      vertex -6154.94231718134 6872.9302526391 0.0
   endloop
endfacet
facet normal 0.0 0.0 1.0
   outer loop
      vertex -6154.94231718134 6872.9302526391 0.0
      vertex -6147.52024260577 6850.64319359129 0.0
      vertex -6154.85542803837 6873.59024120419 0.0
   endloop
endfacet
facet normal 0.0 0.0 1.0
   outer loop
      vertex -6154.85542803837 6873.59024120419 0.0
      vertex -6147.52024260577 6850.64319359129 0.0
      vertex -6147.60542804009 6851.29024120437 0.0
   endloop
endfacet
facet normal 0.0 0.0 1.0
   outer loop
      vertex -6147.27049154938 6850.04024120374 0.0
      vertex -6137.40542803893 6833.59024120437 0.0
      vertex -6146.87319499269 6849.52247425051 0.0
   endloop
endfacet
facet normal 0.0 0.0 1.0
   outer loop
      vertex -6146.87319499269 6849.52247425051 0.0
      vertex -6137.40542803893 6833.59024120437 0.0
      vertex -6146.35542803946 6849.12517769382 0.0
   endloop
endfacet
facet normal 0.0 0.0 1.0
   outer loop
      vertex -6146.35542803946 6849.12517769382 0.0
      vertex -6137.40542803893 6833.59024120437 0.0
      vertex -6145.75247565191 6848.87542663743 0.0
   endloop
endfacet
facet normal 0.0 0.0 1.0
   outer loop
      vertex -6145.75247565191 6848.87542663743 0.0
      vertex -6137.40542803893 6833.59024120437 0.0
      vertex -6145.10542803883 6848.79024120311 0.0
   endloop
endfacet
facet normal 0.0 0.0 1.0
   outer loop
      vertex -6145.10542803883 6848.79024120311 0.0
      vertex -6137.40542803893 6833.59024120437 0.0
      vertex -6144.45838042575 6848.87542663743 0.0
   endloop
endfacet
facet normal 0.0 0.0 1.0
   outer loop
      vertex -6144.45838042575 6848.87542663743 0.0
      vertex -6137.40542803893 6833.59024120437 0.0
      vertex -6143.8554280382 6849.12517769382 0.0
   endloop
endfacet
facet normal 0.0 0.0 1.0
   outer loop
      vertex -6143.8554280382 6849.12517769382 0.0
      vertex -6137.40542803893 6833.59024120437 0.0
      vertex -6143.33766108497 6849.52247425051 0.0
   endloop
endfacet
facet normal 0.0 0.0 1.0
   outer loop
      vertex -6143.33766108497 6849.52247425051 0.0
      vertex -6137.40542803893 6833.59024120437 0.0
      vertex -6142.94036452828 6850.04024120374 0.0
   endloop
endfacet
facet normal 0.0 0.0 1.0
   outer loop
      vertex -6142.94036452828 6850.04024120374 0.0
      vertex -6137.40542803893 6833.59024120437 0.0
      vertex -6142.69061347189 6850.64319359129 0.0
   endloop
endfacet
facet normal 0.0 0.0 1.0
   outer loop
      vertex -6142.69061347189 6850.64319359129 0.0
      vertex -6137.40542803893 6833.59024120437 0.0
      vertex -6142.60542803757 6851.29024120437 0.0
   endloop
endfacet
facet normal 0.0 0.0 1.0
   outer loop
      vertex -6142.60542803757 6851.29024120437 0.0
      vertex -6137.40542803893 6833.59024120437 0.0
      vertex -6142.60542803757 6873.59024120419 0.0
   endloop
endfacet
facet normal 0.0 0.0 1.0
   outer loop
      vertex -6142.60542803757 6873.59024120419 0.0
      vertex -6137.40542803893 6833.59024120437 0.0
      vertex -6142.60542803757 6895.89024120401 0.0
   endloop
endfacet
facet normal 0.0 0.0 1.0
   outer loop
      vertex -6197.40542803837 6913.59024120401 0.0
      vertex -6190.62902380102 6899.33714751551 0.0
      vertex -6137.40542803893 6913.59024120401 0.0
   endloop
endfacet
facet normal 0.0 0.0 1.0
   outer loop
      vertex -6190.62902380102 6899.33714751551 0.0
      vertex -6197.40542803837 6913.59024120401 0.0
      vertex -6191.48967803867 6898.98065285776 0.0
   endloop
endfacet
facet normal 0.0 0.0 1.0
   outer loop
      vertex -6191.48967803867 6898.98065285776 0.0
      vertex -6197.40542803837 6913.59024120401 0.0
      vertex -6192.22873858742 6898.41355175296 0.0
   endloop
endfacet
facet normal 0.0 0.0 1.0
   outer loop
      vertex -6192.22873858742 6898.41355175296 0.0
      vertex -6197.40542803837 6913.59024120401 0.0
      vertex -6192.79583969222 6897.67449120421 0.0
   endloop
endfacet
facet normal 0.0 0.0 1.0
   outer loop
      vertex -6192.79583969222 6897.67449120421 0.0
      vertex -6197.40542803837 6913.59024120401 0.0
      vertex -6193.15233434997 6896.81383696656 0.0
   endloop
endfacet
facet normal 0.0 0.0 1.0
   outer loop
      vertex -6193.15233434997 6896.81383696656 0.0
      vertex -6197.40542803837 6913.59024120401 0.0
      vertex -6193.27392803887 6895.89024120401 0.0
   endloop
endfacet
facet normal 0.0 0.0 1.0
   outer loop
      vertex -6193.27392803887 6895.89024120401 0.0
      vertex -6197.40542803837 6913.59024120401 0.0
      vertex -6193.27392803887 6851.29024120437 0.0
   endloop
endfacet
facet normal 0.0 0.0 1.0
   outer loop
      vertex -6193.27392803887 6895.89024120401 0.0
      vertex -6193.27392803887 6851.29024120437 0.0
      vertex -6193.27392803887 6873.59024120419 0.0
   endloop
endfacet
facet normal 0.0 0.0 1.0
   outer loop
      vertex -6137.40542803893 6913.59024120401 0.0
      vertex -6190.62902380102 6899.33714751551 0.0
      vertex -6189.70542803847 6899.45874120441 0.0
   endloop
endfacet
facet normal 0.0 0.0 1.0
   outer loop
      vertex -6137.40542803893 6913.59024120401 0.0
      vertex -6189.70542803847 6899.45874120441 0.0
      vertex -6188.78183227592 6899.33714751551 0.0
   endloop
endfacet
facet normal 0.0 0.0 1.0
   outer loop
      vertex -6137.40542803893 6913.59024120401 0.0
      vertex -6188.78183227592 6899.33714751551 0.0
      vertex -6187.92117803827 6898.98065285776 0.0
   endloop
endfacet
facet normal 0.0 0.0 1.0
   outer loop
      vertex -6137.40542803893 6913.59024120401 0.0
      vertex -6187.92117803827 6898.98065285776 0.0
      vertex -6187.18211748952 6898.41355175296 0.0
   endloop
endfacet
facet normal 0.0 0.0 1.0
   outer loop
      vertex -6137.40542803893 6913.59024120401 0.0
      vertex -6187.18211748952 6898.41355175296 0.0
      vertex -6186.61501638472 6897.67449120421 0.0
   endloop
endfacet
facet normal 0.0 0.0 1.0
   outer loop
      vertex -6137.40542803893 6913.59024120401 0.0
      vertex -6186.61501638472 6897.67449120421 0.0
      vertex -6186.25852172697 6896.81383696656 0.0
   endloop
endfacet
facet normal 0.0 0.0 1.0
   outer loop
      vertex -6137.40542803893 6913.59024120401 0.0
      vertex -6186.25852172697 6896.81383696656 0.0
      vertex -6186.13692803807 6895.89024120401 0.0
   endloop
endfacet
facet normal 0.0 0.0 1.0
   outer loop
      vertex -6137.40542803893 6913.59024120401 0.0
      vertex -6186.13692803807 6895.89024120401 0.0
      vertex -6168.65542803928 6898.05530471456 0.0
   endloop
endfacet
facet normal 0.0 0.0 1.0
   outer loop
      vertex -6168.65542803928 6898.05530471456 0.0
      vertex -6186.13692803807 6895.89024120401 0.0
      vertex -6169.17319499251 6897.65800815787 0.0
   endloop
endfacet
facet normal 0.0 0.0 1.0
   outer loop
      vertex -6169.17319499251 6897.65800815787 0.0
      vertex -6186.13692803807 6895.89024120401 0.0
      vertex -6169.5704915492 6897.14024120464 0.0
   endloop
endfacet
facet normal 0.0 0.0 1.0
   outer loop
      vertex -6169.5704915492 6897.14024120464 0.0
      vertex -6186.13692803807 6895.89024120401 0.0
      vertex -6179.61379281854 6874.86524120435 0.0
   endloop
endfacet
facet normal 0.0 0.0 1.0
   outer loop
      vertex -6179.61379281854 6874.86524120435 0.0
      vertex -6186.13692803807 6895.89024120401 0.0
      vertex -6179.86853889595 6874.25022976928 0.0
   endloop
endfacet
facet normal 0.0 0.0 1.0
   outer loop
      vertex -6179.86853889595 6874.25022976928 0.0
      vertex -6186.13692803807 6895.89024120401 0.0
      vertex -6179.95542803893 6873.59024120419 0.0
   endloop
endfacet
facet normal 0.0 0.0 1.0
   outer loop
      vertex -6169.5704915492 6897.14024120464 0.0
      vertex -6179.61379281854 6874.86524120435 0.0
      vertex -6179.20855033086 6875.39336349644 0.0
   endloop
endfacet
facet normal 0.0 0.0 1.0
   outer loop
      vertex -6169.5704915492 6897.14024120464 0.0
      vertex -6179.20855033086 6875.39336349644 0.0
      vertex -6178.68042803877 6875.79860598412 0.0
   endloop
endfacet
facet normal 0.0 0.0 1.0
   outer loop
      vertex -6169.5704915492 6897.14024120464 0.0
      vertex -6178.68042803877 6875.79860598412 0.0
      vertex -6169.82024260559 6896.53728881709 0.0
   endloop
endfacet
facet normal 0.0 0.0 1.0
   outer loop
      vertex -6169.82024260559 6896.53728881709 0.0
      vertex -6178.68042803877 6875.79860598412 0.0
      vertex -6178.0654166037 6876.05335206154 0.0
   endloop
endfacet
facet normal 0.0 0.0 1.0
   outer loop
      vertex -6169.82024260559 6896.53728881709 0.0
      vertex -6178.0654166037 6876.05335206154 0.0
      vertex -6177.40542803861 6876.14024120451 0.0
   endloop
endfacet
facet normal 0.0 0.0 1.0
   outer loop
      vertex -6169.82024260559 6896.53728881709 0.0
      vertex -6177.40542803861 6876.14024120451 0.0
      vertex -6176.74543947351 6876.05335206154 0.0
   endloop
endfacet
facet normal 0.0 0.0 1.0
   outer loop
      vertex -6169.82024260559 6896.53728881709 0.0
      vertex -6176.74543947351 6876.05335206154 0.0
      vertex -6176.13042803845 6875.79860598412 0.0
   endloop
endfacet
facet normal 0.0 0.0 1.0
   outer loop
      vertex -6169.82024260559 6896.53728881709 0.0
      vertex -6176.13042803845 6875.79860598412 0.0
      vertex -6175.60230574636 6875.39336349644 0.0
   endloop
endfacet
facet normal 0.0 0.0 1.0
   outer loop
      vertex -6169.82024260559 6896.53728881709 0.0
      vertex -6175.60230574636 6875.39336349644 0.0
      vertex -6175.19706325868 6874.86524120435 0.0
   endloop
endfacet
facet normal 0.0 0.0 1.0
   outer loop
      vertex -6169.82024260559 6896.53728881709 0.0
      vertex -6175.19706325868 6874.86524120435 0.0
      vertex -6174.94231718126 6874.25022976928 0.0
   endloop
endfacet
facet normal 0.0 0.0 1.0
   outer loop
      vertex -6169.82024260559 6896.53728881709 0.0
      vertex -6174.94231718126 6874.25022976928 0.0
      vertex -6174.85542803829 6873.59024120419 0.0
   endloop
endfacet
facet normal 0.0 0.0 1.0
   outer loop
      vertex -6169.82024260559 6896.53728881709 0.0
      vertex -6174.85542803829 6873.59024120419 0.0
      vertex -6169.90542803991 6895.89024120401 0.0
   endloop
endfacet
facet normal 0.0 0.0 1.0
   outer loop
      vertex -6169.90542803991 6895.89024120401 0.0
      vertex -6174.85542803829 6873.59024120419 0.0
      vertex -6169.95542803897 6873.59024120419 0.0
   endloop
endfacet
facet normal 0.0 0.0 1.0
   outer loop
      vertex -6169.90542803991 6895.89024120401 0.0
      vertex -6169.95542803897 6873.59024120419 0.0
      vertex -6169.90542803991 6883.59024120415 0.0
   endloop
endfacet
facet normal 0.0 0.0 1.0
   outer loop
      vertex -6137.40542803893 6913.59024120401 0.0
      vertex -6168.65542803928 6898.05530471456 0.0
      vertex -6168.05247565173 6898.30505577095 0.0
   endloop
endfacet
facet normal 0.0 0.0 1.0
   outer loop
      vertex -6137.40542803893 6913.59024120401 0.0
      vertex -6168.05247565173 6898.30505577095 0.0
      vertex -6167.40542803865 6898.39024120527 0.0
   endloop
endfacet
facet normal 0.0 0.0 1.0
   outer loop
      vertex -6137.40542803893 6913.59024120401 0.0
      vertex -6167.40542803865 6898.39024120527 0.0
      vertex -6166.75838042557 6898.30505577095 0.0
   endloop
endfacet
facet normal 0.0 0.0 1.0
   outer loop
      vertex -6137.40542803893 6913.59024120401 0.0
      vertex -6166.75838042557 6898.30505577095 0.0
      vertex -6166.15542803802 6898.05530471456 0.0
   endloop
endfacet
facet normal 0.0 0.0 1.0
   outer loop
      vertex -6137.40542803893 6913.59024120401 0.0
      vertex -6166.15542803802 6898.05530471456 0.0
      vertex -6165.63766108479 6897.65800815787 0.0
   endloop
endfacet
facet normal 0.0 0.0 1.0
   outer loop
      vertex -6137.40542803893 6913.59024120401 0.0
      vertex -6165.63766108479 6897.65800815787 0.0
      vertex -6165.2403645281 6897.14024120464 0.0
   endloop
endfacet
facet normal 0.0 0.0 1.0
   outer loop
      vertex -6137.40542803893 6913.59024120401 0.0
      vertex -6165.2403645281 6897.14024120464 0.0
      vertex -6164.99061347171 6896.53728881709 0.0
   endloop
endfacet
facet normal 0.0 0.0 1.0
   outer loop
      vertex -6137.40542803893 6913.59024120401 0.0
      vertex -6164.99061347171 6896.53728881709 0.0
      vertex -6164.90542803739 6895.89024120401 0.0
   endloop
endfacet
facet normal 0.0 0.0 1.0
   outer loop
      vertex -6137.40542803893 6913.59024120401 0.0
      vertex -6164.90542803739 6895.89024120401 0.0
      vertex -6164.85542803833 6873.59024120419 0.0
   endloop
endfacet
facet normal 0.0 0.0 1.0
   outer loop
      vertex -6137.40542803893 6913.59024120401 0.0
      vertex -6164.85542803833 6873.59024120419 0.0
      vertex -6147.27049154938 6897.14024120464 0.0
   endloop
endfacet
facet normal 0.0 0.0 1.0
   outer loop
      vertex -6147.27049154938 6897.14024120464 0.0
      vertex -6164.85542803833 6873.59024120419 0.0
      vertex -6159.61379281862 6874.86524120435 0.0
   endloop
endfacet
facet normal 0.0 0.0 1.0
   outer loop
      vertex -6159.61379281862 6874.86524120435 0.0
      vertex -6164.85542803833 6873.59024120419 0.0
      vertex -6159.86853889603 6874.25022976928 0.0
   endloop
endfacet
facet normal 0.0 0.0 1.0
   outer loop
      vertex -6159.86853889603 6874.25022976928 0.0
      vertex -6164.85542803833 6873.59024120419 0.0
      vertex -6159.95542803901 6873.59024120419 0.0
   endloop
endfacet
facet normal 0.0 0.0 1.0
   outer loop
      vertex -6147.27049154938 6897.14024120464 0.0
      vertex -6159.61379281862 6874.86524120435 0.0
      vertex -6159.20855033094 6875.39336349644 0.0
   endloop
endfacet
facet normal 0.0 0.0 1.0
   outer loop
      vertex -6147.27049154938 6897.14024120464 0.0
      vertex -6159.20855033094 6875.39336349644 0.0
      vertex -6158.68042803885 6875.79860598412 0.0
   endloop
endfacet
facet normal 0.0 0.0 1.0
   outer loop
      vertex -6147.27049154938 6897.14024120464 0.0
      vertex -6158.68042803885 6875.79860598412 0.0
      vertex -6158.06541660378 6876.05335206154 0.0
   endloop
endfacet
facet normal 0.0 0.0 1.0
   outer loop
      vertex -6147.27049154938 6897.14024120464 0.0
      vertex -6158.06541660378 6876.05335206154 0.0
      vertex -6157.40542803869 6876.14024120451 0.0
   endloop
endfacet
facet normal 0.0 0.0 1.0
   outer loop
      vertex -6147.27049154938 6897.14024120464 0.0
      vertex -6157.40542803869 6876.14024120451 0.0
      vertex -6156.74543947359 6876.05335206154 0.0
   endloop
endfacet
facet normal 0.0 0.0 1.0
   outer loop
      vertex -6147.27049154938 6897.14024120464 0.0
      vertex -6156.74543947359 6876.05335206154 0.0
      vertex -6156.13042803853 6875.79860598412 0.0
   endloop
endfacet
facet normal 0.0 0.0 1.0
   outer loop
      vertex -6147.27049154938 6897.14024120464 0.0
      vertex -6156.13042803853 6875.79860598412 0.0
      vertex -6147.52024260577 6896.53728881709 0.0
   endloop
endfacet
facet normal 0.0 0.0 1.0
   outer loop
      vertex -6147.52024260577 6896.53728881709 0.0
      vertex -6156.13042803853 6875.79860598412 0.0
      vertex -6155.60230574644 6875.39336349644 0.0
   endloop
endfacet
facet normal 0.0 0.0 1.0
   outer loop
      vertex -6147.52024260577 6896.53728881709 0.0
      vertex -6155.60230574644 6875.39336349644 0.0
      vertex -6155.19706325876 6874.86524120435 0.0
   endloop
endfacet
facet normal 0.0 0.0 1.0
   outer loop
      vertex -6147.52024260577 6896.53728881709 0.0
      vertex -6155.19706325876 6874.86524120435 0.0
      vertex -6154.94231718134 6874.25022976928 0.0
   endloop
endfacet
facet normal 0.0 0.0 1.0
   outer loop
      vertex -6147.52024260577 6896.53728881709 0.0
      vertex -6154.94231718134 6874.25022976928 0.0
      vertex -6154.85542803837 6873.59024120419 0.0
   endloop
endfacet
facet normal 0.0 0.0 1.0
   outer loop
      vertex -6147.52024260577 6896.53728881709 0.0
      vertex -6154.85542803837 6873.59024120419 0.0
      vertex -6147.60542804009 6895.89024120401 0.0
   endloop
endfacet
facet normal 0.0 0.0 1.0
   outer loop
      vertex -6147.60542804009 6895.89024120401 0.0
      vertex -6154.85542803837 6873.59024120419 0.0
      vertex -6147.60542804009 6851.29024120437 0.0
   endloop
endfacet
facet normal 0.0 0.0 1.0
   outer loop
      vertex -6147.60542804009 6895.89024120401 0.0
      vertex -6147.60542804009 6851.29024120437 0.0
      vertex -6147.60542804009 6873.59024120419 0.0
   endloop
endfacet
facet normal 0.0 0.0 1.0
   outer loop
      vertex -6137.40542803893 6913.59024120401 0.0
      vertex -6147.27049154938 6897.14024120464 0.0
      vertex -6146.87319499269 6897.65800815787 0.0
   endloop
endfacet
facet normal 0.0 0.0 1.0
   outer loop
      vertex -6137.40542803893 6913.59024120401 0.0
      vertex -6146.87319499269 6897.65800815787 0.0
      vertex -6146.35542803946 6898.05530471456 0.0
   endloop
endfacet
facet normal 0.0 0.0 1.0
   outer loop
      vertex -6137.40542803893 6913.59024120401 0.0
      vertex -6146.35542803946 6898.05530471456 0.0
      vertex -6145.75247565191 6898.30505577095 0.0
   endloop
endfacet
facet normal 0.0 0.0 1.0
   outer loop
      vertex -6137.40542803893 6913.59024120401 0.0
      vertex -6145.75247565191 6898.30505577095 0.0
      vertex -6145.10542803883 6898.39024120527 0.0
   endloop
endfacet
facet normal 0.0 0.0 1.0
   outer loop
      vertex -6137.40542803893 6913.59024120401 0.0
      vertex -6145.10542803883 6898.39024120527 0.0
      vertex -6144.45838042575 6898.30505577095 0.0
   endloop
endfacet
facet normal 0.0 0.0 1.0
   outer loop
      vertex -6137.40542803893 6913.59024120401 0.0
      vertex -6144.45838042575 6898.30505577095 0.0
      vertex -6143.8554280382 6898.05530471456 0.0
   endloop
endfacet
facet normal 0.0 0.0 1.0
   outer loop
      vertex -6137.40542803893 6913.59024120401 0.0
      vertex -6143.8554280382 6898.05530471456 0.0
      vertex -6143.33766108497 6897.65800815787 0.0
   endloop
endfacet
facet normal 0.0 0.0 1.0
   outer loop
      vertex -6137.40542803893 6913.59024120401 0.0
      vertex -6143.33766108497 6897.65800815787 0.0
      vertex -6142.94036452828 6897.14024120464 0.0
   endloop
endfacet
facet normal 0.0 0.0 1.0
   outer loop
      vertex -6137.40542803893 6913.59024120401 0.0
      vertex -6142.94036452828 6897.14024120464 0.0
      vertex -6142.69061347189 6896.53728881709 0.0
   endloop
endfacet
facet normal 0.0 0.0 1.0
   outer loop
      vertex -6137.40542803893 6913.59024120401 0.0
      vertex -6142.69061347189 6896.53728881709 0.0
      vertex -6142.60542803757 6895.89024120401 0.0
   endloop
endfacet
facet normal 0.0 0.0 1.0
   outer loop
      vertex -6137.40542803893 6913.59024120401 0.0
      vertex -6142.60542803757 6895.89024120401 0.0
      vertex -6137.40542803893 6833.59024120437 0.0
   endloop
endfacet
facet normal 0.0 0.0 1.0
   outer loop
      vertex -6137.40542803893 6913.59024120401 0.0
      vertex -6137.40542803893 6833.59024120437 0.0
      vertex -6136.10016611673 6833.67579259063 0.0
   endloop
endfacet
facet normal 0.0 0.0 1.0
   outer loop
      vertex -6137.40542803893 6913.59024120401 0.0
      vertex -6136.10016611673 6833.67579259063 0.0
      vertex -6136.10016611673 6913.50468981775 0.0
   endloop
endfacet
facet normal 0.0 0.0 1.0
   outer loop
      vertex -6136.10016611673 6913.50468981775 0.0
      vertex -6136.10016611673 6833.67579259063 0.0
      vertex -6134.81723758791 6833.93098294148 0.0
   endloop
endfacet
facet normal 0.0 0.0 1.0
   outer loop
      vertex -6136.10016611673 6913.50468981775 0.0
      vertex -6134.81723758791 6833.93098294148 0.0
      vertex -6134.81723758791 6913.2494994669 0.0
   endloop
endfacet
facet normal 0.0 0.0 1.0
   outer loop
      vertex -6134.81723758791 6913.2494994669 0.0
      vertex -6134.81723758791 6833.93098294148 0.0
      vertex -6133.57859371529 6834.35144587925 0.0
   endloop
endfacet
facet normal 0.0 0.0 1.0
   outer loop
      vertex -6134.81723758791 6913.2494994669 0.0
      vertex -6133.57859371529 6834.35144587925 0.0
      vertex -6133.57859371529 6912.82903652912 0.0
   endloop
endfacet
facet normal 0.0 0.0 1.0
   outer loop
      vertex -6133.57859371529 6912.82903652912 0.0
      vertex -6133.57859371529 6834.35144587925 0.0
      vertex -6132.40542803895 6834.92998716652 0.0
   endloop
endfacet
facet normal 0.0 0.0 1.0
   outer loop
      vertex -6133.57859371529 6912.82903652912 0.0
      vertex -6132.40542803895 6834.92998716652 0.0
      vertex -6132.40542803895 6912.25049524186 0.0
   endloop
endfacet
facet normal 0.0 0.0 1.0
   outer loop
      vertex -6132.40542803895 6912.25049524186 0.0
      vertex -6132.40542803895 6834.92998716652 0.0
      vertex -6131.31781374887 6835.65670780145 0.0
   endloop
endfacet
facet normal 0.0 0.0 1.0
   outer loop
      vertex -6132.40542803895 6912.25049524186 0.0
      vertex -6131.31781374887 6835.65670780145 0.0
      vertex -6131.31781374887 6911.52377460693 0.0
   endloop
endfacet
facet normal 0.0 0.0 1.0
   outer loop
      vertex -6131.31781374887 6911.52377460693 0.0
      vertex -6131.31781374887 6835.65670780145 0.0
      vertex -6130.33436022709 6836.51917339249 0.0
   endloop
endfacet
facet normal 0.0 0.0 1.0
   outer loop
      vertex -6131.31781374887 6911.52377460693 0.0
      vertex -6130.33436022709 6836.51917339249 0.0
      vertex -6130.33436022709 6910.66130901589 0.0
   endloop
endfacet
facet normal 0.0 0.0 1.0
   outer loop
      vertex -6130.33436022709 6910.66130901589 0.0
      vertex -6130.33436022709 6836.51917339249 0.0
      vertex -6129.47189463605 6837.50262691427 0.0
   endloop
endfacet
facet normal 0.0 0.0 1.0
   outer loop
      vertex -6130.33436022709 6910.66130901589 0.0
      vertex -6129.47189463605 6837.50262691427 0.0
      vertex -6129.47189463605 6909.67785549411 0.0
   endloop
endfacet
facet normal 0.0 0.0 1.0
   outer loop
      vertex -6129.47189463605 6909.67785549411 0.0
      vertex -6129.47189463605 6837.50262691427 0.0
      vertex -6128.74517400112 6838.59024120435 0.0
   endloop
endfacet
facet normal 0.0 0.0 1.0
   outer loop
      vertex -6129.47189463605 6909.67785549411 0.0
      vertex -6128.74517400112 6838.59024120435 0.0
      vertex -6128.74517400112 6908.59024120403 0.0
   endloop
endfacet
facet normal 0.0 0.0 1.0
   outer loop
      vertex -6128.74517400112 6908.59024120403 0.0
      vertex -6128.74517400112 6838.59024120435 0.0
      vertex -6128.16663271385 6839.76340688069 0.0
   endloop
endfacet
facet normal 0.0 0.0 1.0
   outer loop
      vertex -6128.74517400112 6908.59024120403 0.0
      vertex -6128.16663271385 6839.76340688069 0.0
      vertex -6128.16663271385 6907.41707552768 0.0
   endloop
endfacet
facet normal 0.0 0.0 1.0
   outer loop
      vertex -6128.16663271385 6907.41707552768 0.0
      vertex -6128.16663271385 6839.76340688069 0.0
      vertex -6127.74616977608 6841.00205075331 0.0
   endloop
endfacet
facet normal 0.0 0.0 1.0
   outer loop
      vertex -6128.16663271385 6907.41707552768 0.0
      vertex -6127.74616977608 6841.00205075331 0.0
      vertex -6127.74616977608 6906.17843165506 0.0
   endloop
endfacet
facet normal 0.0 0.0 1.0
   outer loop
      vertex -6127.74616977608 6906.17843165506 0.0
      vertex -6127.74616977608 6841.00205075331 0.0
      vertex -6127.49097942523 6842.28497928213 0.0
   endloop
endfacet
facet normal 0.0 0.0 1.0
   outer loop
      vertex -6127.74616977608 6906.17843165506 0.0
      vertex -6127.49097942523 6842.28497928213 0.0
      vertex -6127.49097942523 6904.89550312624 0.0
   endloop
endfacet
facet normal 0.0 0.0 1.0
   outer loop
      vertex -6127.49097942523 6904.89550312624 0.0
      vertex -6127.49097942523 6842.28497928213 0.0
      vertex -6127.40542803897 6843.59024120433 0.0
   endloop
endfacet
facet normal 0.0 0.0 1.0
   outer loop
      vertex -6127.49097942523 6904.89550312624 0.0
      vertex -6127.40542803897 6843.59024120433 0.0
      vertex -6127.40542803897 6903.59024120405 0.0
   endloop
endfacet
facet normal 0.0 0.0 1.0
   outer loop
      vertex -6147.52024260577 6874.23728881727 0.0
      vertex -6147.60542804009 6895.89024120401 0.0
      vertex -6147.60542804009 6873.59024120419 0.0
   endloop
endfacet
facet normal 0.0 0.0 1.0
   outer loop
      vertex -6147.60542804009 6895.89024120401 0.0
      vertex -6147.52024260577 6874.23728881727 0.0
      vertex -6147.52024260577 6895.24319359093 0.0
   endloop
endfacet
facet normal 0.0 0.0 1.0
   outer loop
      vertex -6147.52024260577 6895.24319359093 0.0
      vertex -6147.52024260577 6874.23728881727 0.0
      vertex -6147.27049154938 6874.84024120482 0.0
   endloop
endfacet
facet normal 0.0 0.0 1.0
   outer loop
      vertex -6147.52024260577 6895.24319359093 0.0
      vertex -6147.27049154938 6874.84024120482 0.0
      vertex -6147.27049154938 6894.64024120338 0.0
   endloop
endfacet
facet normal 0.0 0.0 1.0
   outer loop
      vertex -6147.27049154938 6894.64024120338 0.0
      vertex -6147.27049154938 6874.84024120482 0.0
      vertex -6146.87319499269 6875.35800815805 0.0
   endloop
endfacet
facet normal 0.0 0.0 1.0
   outer loop
      vertex -6147.27049154938 6894.64024120338 0.0
      vertex -6146.87319499269 6875.35800815805 0.0
      vertex -6146.87319499269 6894.12247425015 0.0
   endloop
endfacet
facet normal 0.0 0.0 1.0
   outer loop
      vertex -6146.87319499269 6894.12247425015 0.0
      vertex -6146.87319499269 6875.35800815805 0.0
      vertex -6146.35542803946 6875.75530471474 0.0
   endloop
endfacet
facet normal 0.0 0.0 1.0
   outer loop
      vertex -6146.87319499269 6894.12247425015 0.0
      vertex -6146.35542803946 6875.75530471474 0.0
      vertex -6146.35542803946 6893.72517769346 0.0
   endloop
endfacet
facet normal 0.0 0.0 1.0
   outer loop
      vertex -6146.35542803946 6893.72517769346 0.0
      vertex -6146.35542803946 6875.75530471474 0.0
      vertex -6145.75247565191 6876.00505577113 0.0
   endloop
endfacet
facet normal 0.0 0.0 1.0
   outer loop
      vertex -6146.35542803946 6893.72517769346 0.0
      vertex -6145.75247565191 6876.00505577113 0.0
      vertex -6145.75247565191 6893.47542663707 0.0
   endloop
endfacet
facet normal 0.0 0.0 1.0
   outer loop
      vertex -6145.75247565191 6893.47542663707 0.0
      vertex -6145.75247565191 6876.00505577113 0.0
      vertex -6145.10542803883 6876.09024120545 0.0
   endloop
endfacet
facet normal 0.0 0.0 1.0
   outer loop
      vertex -6145.75247565191 6893.47542663707 0.0
      vertex -6145.10542803883 6876.09024120545 0.0
      vertex -6145.10542803883 6893.39024120275 0.0
   endloop
endfacet
facet normal 0.0 0.0 1.0
   outer loop
      vertex -6145.10542803883 6893.39024120275 0.0
      vertex -6145.10542803883 6876.09024120545 0.0
      vertex -6144.45838042575 6876.00505577113 0.0
   endloop
endfacet
facet normal 0.0 0.0 1.0
   outer loop
      vertex -6145.10542803883 6893.39024120275 0.0
      vertex -6144.45838042575 6876.00505577113 0.0
      vertex -6144.45838042575 6893.47542663707 0.0
   endloop
endfacet
facet normal 0.0 0.0 1.0
   outer loop
      vertex -6144.45838042575 6893.47542663707 0.0
      vertex -6144.45838042575 6876.00505577113 0.0
      vertex -6143.8554280382 6875.75530471474 0.0
   endloop
endfacet
facet normal 0.0 0.0 1.0
   outer loop
      vertex -6144.45838042575 6893.47542663707 0.0
      vertex -6143.8554280382 6875.75530471474 0.0
      vertex -6143.8554280382 6893.72517769346 0.0
   endloop
endfacet
facet normal 0.0 0.0 1.0
   outer loop
      vertex -6143.8554280382 6893.72517769346 0.0
      vertex -6143.8554280382 6875.75530471474 0.0
      vertex -6143.33766108497 6875.35800815805 0.0
   endloop
endfacet
facet normal 0.0 0.0 1.0
   outer loop
      vertex -6143.8554280382 6893.72517769346 0.0
      vertex -6143.33766108497 6875.35800815805 0.0
      vertex -6143.33766108497 6894.12247425015 0.0
   endloop
endfacet
facet normal 0.0 0.0 1.0
   outer loop
      vertex -6143.33766108497 6894.12247425015 0.0
      vertex -6143.33766108497 6875.35800815805 0.0
      vertex -6142.94036452828 6874.84024120482 0.0
   endloop
endfacet
facet normal 0.0 0.0 1.0
   outer loop
      vertex -6143.33766108497 6894.12247425015 0.0
      vertex -6142.94036452828 6874.84024120482 0.0
      vertex -6142.94036452828 6894.64024120338 0.0
   endloop
endfacet
facet normal 0.0 0.0 1.0
   outer loop
      vertex -6142.94036452828 6894.64024120338 0.0
      vertex -6142.94036452828 6874.84024120482 0.0
      vertex -6142.69061347189 6895.24319359093 0.0
   endloop
endfacet
facet normal 0.0 0.0 1.0
   outer loop
      vertex -6142.69061347189 6895.24319359093 0.0
      vertex -6142.94036452828 6874.84024120482 0.0
      vertex -6142.69061347189 6874.23728881727 0.0
   endloop
endfacet
facet normal 0.0 0.0 1.0
   outer loop
      vertex -6142.69061347189 6895.24319359093 0.0
      vertex -6142.69061347189 6874.23728881727 0.0
      vertex -6142.60542803757 6873.59024120419 0.0
   endloop
endfacet
facet normal 0.0 0.0 1.0
   outer loop
      vertex -6142.69061347189 6895.24319359093 0.0
      vertex -6142.60542803757 6873.59024120419 0.0
      vertex -6142.60542803757 6895.89024120401 0.0
   endloop
endfacet
facet normal 0.0 0.0 1.0
   outer loop
      vertex -6147.52024260577 6851.93728881745 0.0
      vertex -6147.60542804009 6873.59024120419 0.0
      vertex -6147.60542804009 6851.29024120437 0.0
   endloop
endfacet
facet normal 0.0 0.0 1.0
   outer loop
      vertex -6147.60542804009 6873.59024120419 0.0
      vertex -6147.52024260577 6851.93728881745 0.0
      vertex -6147.52024260577 6872.94319359111 0.0
   endloop
endfacet
facet normal 0.0 0.0 1.0
   outer loop
      vertex -6147.52024260577 6872.94319359111 0.0
      vertex -6147.52024260577 6851.93728881745 0.0
      vertex -6147.27049154938 6852.540241205 0.0
   endloop
endfacet
facet normal 0.0 0.0 1.0
   outer loop
      vertex -6147.52024260577 6872.94319359111 0.0
      vertex -6147.27049154938 6852.540241205 0.0
      vertex -6147.27049154938 6872.34024120356 0.0
   endloop
endfacet
facet normal 0.0 0.0 1.0
   outer loop
      vertex -6147.27049154938 6872.34024120356 0.0
      vertex -6147.27049154938 6852.540241205 0.0
      vertex -6146.87319499269 6853.05800815823 0.0
   endloop
endfacet
facet normal 0.0 0.0 1.0
   outer loop
      vertex -6147.27049154938 6872.34024120356 0.0
      vertex -6146.87319499269 6853.05800815823 0.0
      vertex -6146.87319499269 6871.82247425033 0.0
   endloop
endfacet
facet normal 0.0 0.0 1.0
   outer loop
      vertex -6146.87319499269 6871.82247425033 0.0
      vertex -6146.87319499269 6853.05800815823 0.0
      vertex -6146.35542803946 6853.45530471492 0.0
   endloop
endfacet
facet normal 0.0 0.0 1.0
   outer loop
      vertex -6146.87319499269 6871.82247425033 0.0
      vertex -6146.35542803946 6853.45530471492 0.0
      vertex -6146.35542803946 6871.42517769364 0.0
   endloop
endfacet
facet normal 0.0 0.0 1.0
   outer loop
      vertex -6146.35542803946 6871.42517769364 0.0
      vertex -6146.35542803946 6853.45530471492 0.0
      vertex -6145.75247565191 6853.70505577131 0.0
   endloop
endfacet
facet normal 0.0 0.0 1.0
   outer loop
      vertex -6146.35542803946 6871.42517769364 0.0
      vertex -6145.75247565191 6853.70505577131 0.0
      vertex -6145.75247565191 6871.17542663725 0.0
   endloop
endfacet
facet normal 0.0 0.0 1.0
   outer loop
      vertex -6145.75247565191 6871.17542663725 0.0
      vertex -6145.75247565191 6853.70505577131 0.0
      vertex -6145.10542803883 6853.79024120563 0.0
   endloop
endfacet
facet normal 0.0 0.0 1.0
   outer loop
      vertex -6145.75247565191 6871.17542663725 0.0
      vertex -6145.10542803883 6853.79024120563 0.0
      vertex -6145.10542803883 6871.09024120293 0.0
   endloop
endfacet
facet normal 0.0 0.0 1.0
   outer loop
      vertex -6145.10542803883 6871.09024120293 0.0
      vertex -6145.10542803883 6853.79024120563 0.0
      vertex -6144.45838042575 6853.70505577131 0.0
   endloop
endfacet
facet normal 0.0 0.0 1.0
   outer loop
      vertex -6145.10542803883 6871.09024120293 0.0
      vertex -6144.45838042575 6853.70505577131 0.0
      vertex -6144.45838042575 6871.17542663725 0.0
   endloop
endfacet
facet normal 0.0 0.0 1.0
   outer loop
      vertex -6144.45838042575 6871.17542663725 0.0
      vertex -6144.45838042575 6853.70505577131 0.0
      vertex -6143.8554280382 6853.45530471492 0.0
   endloop
endfacet
facet normal 0.0 0.0 1.0
   outer loop
      vertex -6144.45838042575 6871.17542663725 0.0
      vertex -6143.8554280382 6853.45530471492 0.0
      vertex -6143.8554280382 6871.42517769364 0.0
   endloop
endfacet
facet normal 0.0 0.0 1.0
   outer loop
      vertex -6143.8554280382 6871.42517769364 0.0
      vertex -6143.8554280382 6853.45530471492 0.0
      vertex -6143.33766108497 6853.05800815823 0.0
   endloop
endfacet
facet normal 0.0 0.0 1.0
   outer loop
      vertex -6143.8554280382 6871.42517769364 0.0
      vertex -6143.33766108497 6853.05800815823 0.0
      vertex -6143.33766108497 6871.82247425033 0.0
   endloop
endfacet
facet normal 0.0 0.0 1.0
   outer loop
      vertex -6143.33766108497 6871.82247425033 0.0
      vertex -6143.33766108497 6853.05800815823 0.0
      vertex -6142.94036452828 6852.540241205 0.0
   endloop
endfacet
facet normal 0.0 0.0 1.0
   outer loop
      vertex -6143.33766108497 6871.82247425033 0.0
      vertex -6142.94036452828 6852.540241205 0.0
      vertex -6142.94036452828 6872.34024120356 0.0
   endloop
endfacet
facet normal 0.0 0.0 1.0
   outer loop
      vertex -6142.94036452828 6872.34024120356 0.0
      vertex -6142.94036452828 6852.540241205 0.0
      vertex -6142.69061347189 6851.93728881745 0.0
   endloop
endfacet
facet normal 0.0 0.0 1.0
   outer loop
      vertex -6142.94036452828 6872.34024120356 0.0
      vertex -6142.69061347189 6851.93728881745 0.0
      vertex -6142.69061347189 6872.94319359111 0.0
   endloop
endfacet
facet normal 0.0 0.0 1.0
   outer loop
      vertex -6142.69061347189 6872.94319359111 0.0
      vertex -6142.69061347189 6851.93728881745 0.0
      vertex -6142.60542803757 6851.29024120437 0.0
   endloop
endfacet
facet normal 0.0 0.0 1.0
   outer loop
      vertex -6142.69061347189 6872.94319359111 0.0
      vertex -6142.60542803757 6851.29024120437 0.0
      vertex -6142.60542803757 6873.59024120419 0.0
   endloop
endfacet
facet normal 0.0 0.0 1.0
   outer loop
      vertex -6169.82024260559 6884.23728881723 0.0
      vertex -6169.90542803991 6895.89024120401 0.0
      vertex -6169.90542803991 6883.59024120415 0.0
   endloop
endfacet
facet normal 0.0 0.0 1.0
   outer loop
      vertex -6169.90542803991 6895.89024120401 0.0
      vertex -6169.82024260559 6884.23728881723 0.0
      vertex -6169.82024260559 6895.24319359093 0.0
   endloop
endfacet
facet normal 0.0 0.0 1.0
   outer loop
      vertex -6169.82024260559 6895.24319359093 0.0
      vertex -6169.82024260559 6884.23728881723 0.0
      vertex -6169.5704915492 6884.84024120478 0.0
   endloop
endfacet
facet normal 0.0 0.0 1.0
   outer loop
      vertex -6169.82024260559 6895.24319359093 0.0
      vertex -6169.5704915492 6884.84024120478 0.0
      vertex -6169.5704915492 6894.64024120338 0.0
   endloop
endfacet
facet normal 0.0 0.0 1.0
   outer loop
      vertex -6169.5704915492 6894.64024120338 0.0
      vertex -6169.5704915492 6884.84024120478 0.0
      vertex -6169.17319499251 6885.35800815801 0.0
   endloop
endfacet
facet normal 0.0 0.0 1.0
   outer loop
      vertex -6169.5704915492 6894.64024120338 0.0
      vertex -6169.17319499251 6885.35800815801 0.0
      vertex -6169.17319499251 6894.12247425015 0.0
   endloop
endfacet
facet normal 0.0 0.0 1.0
   outer loop
      vertex -6169.17319499251 6894.12247425015 0.0
      vertex -6169.17319499251 6885.35800815801 0.0
      vertex -6168.65542803928 6885.7553047147 0.0
   endloop
endfacet
facet normal 0.0 0.0 1.0
   outer loop
      vertex -6169.17319499251 6894.12247425015 0.0
      vertex -6168.65542803928 6885.7553047147 0.0
      vertex -6168.65542803928 6893.72517769346 0.0
   endloop
endfacet
facet normal 0.0 0.0 1.0
   outer loop
      vertex -6168.65542803928 6893.72517769346 0.0
      vertex -6168.65542803928 6885.7553047147 0.0
      vertex -6168.05247565173 6886.00505577109 0.0
   endloop
endfacet
facet normal 0.0 0.0 1.0
   outer loop
      vertex -6168.65542803928 6893.72517769346 0.0
      vertex -6168.05247565173 6886.00505577109 0.0
      vertex -6168.05247565173 6893.47542663707 0.0
   endloop
endfacet
facet normal 0.0 0.0 1.0
   outer loop
      vertex -6168.05247565173 6893.47542663707 0.0
      vertex -6168.05247565173 6886.00505577109 0.0
      vertex -6167.40542803865 6886.09024120541 0.0
   endloop
endfacet
facet normal 0.0 0.0 1.0
   outer loop
      vertex -6168.05247565173 6893.47542663707 0.0
      vertex -6167.40542803865 6886.09024120541 0.0
      vertex -6167.40542803865 6893.39024120275 0.0
   endloop
endfacet
facet normal 0.0 0.0 1.0
   outer loop
      vertex -6167.40542803865 6893.39024120275 0.0
      vertex -6167.40542803865 6886.09024120541 0.0
      vertex -6166.75838042557 6886.00505577109 0.0
   endloop
endfacet
facet normal 0.0 0.0 1.0
   outer loop
      vertex -6167.40542803865 6893.39024120275 0.0
      vertex -6166.75838042557 6886.00505577109 0.0
      vertex -6166.75838042557 6893.47542663707 0.0
   endloop
endfacet
facet normal 0.0 0.0 1.0
   outer loop
      vertex -6166.75838042557 6893.47542663707 0.0
      vertex -6166.75838042557 6886.00505577109 0.0
      vertex -6166.15542803802 6885.7553047147 0.0
   endloop
endfacet
facet normal 0.0 0.0 1.0
   outer loop
      vertex -6166.75838042557 6893.47542663707 0.0
      vertex -6166.15542803802 6885.7553047147 0.0
      vertex -6166.15542803802 6893.72517769346 0.0
   endloop
endfacet
facet normal 0.0 0.0 1.0
   outer loop
      vertex -6166.15542803802 6893.72517769346 0.0
      vertex -6166.15542803802 6885.7553047147 0.0
      vertex -6165.63766108479 6885.35800815801 0.0
   endloop
endfacet
facet normal 0.0 0.0 1.0
   outer loop
      vertex -6166.15542803802 6893.72517769346 0.0
      vertex -6165.63766108479 6885.35800815801 0.0
      vertex -6165.63766108479 6894.12247425015 0.0
   endloop
endfacet
facet normal 0.0 0.0 1.0
   outer loop
      vertex -6165.63766108479 6894.12247425015 0.0
      vertex -6165.63766108479 6885.35800815801 0.0
      vertex -6165.2403645281 6884.84024120478 0.0
   endloop
endfacet
facet normal 0.0 0.0 1.0
   outer loop
      vertex -6165.63766108479 6894.12247425015 0.0
      vertex -6165.2403645281 6884.84024120478 0.0
      vertex -6165.2403645281 6894.64024120338 0.0
   endloop
endfacet
facet normal 0.0 0.0 1.0
   outer loop
      vertex -6165.2403645281 6894.64024120338 0.0
      vertex -6165.2403645281 6884.84024120478 0.0
      vertex -6164.99061347171 6884.23728881723 0.0
   endloop
endfacet
facet normal 0.0 0.0 1.0
   outer loop
      vertex -6165.2403645281 6894.64024120338 0.0
      vertex -6164.99061347171 6884.23728881723 0.0
      vertex -6164.99061347171 6895.24319359093 0.0
   endloop
endfacet
facet normal 0.0 0.0 1.0
   outer loop
      vertex -6164.99061347171 6895.24319359093 0.0
      vertex -6164.99061347171 6884.23728881723 0.0
      vertex -6164.90542803739 6883.59024120415 0.0
   endloop
endfacet
facet normal 0.0 0.0 1.0
   outer loop
      vertex -6164.99061347171 6895.24319359093 0.0
      vertex -6164.90542803739 6883.59024120415 0.0
      vertex -6164.90542803739 6895.89024120401 0.0
   endloop
endfacet
facet normal 0.0 0.0 1.0
   outer loop
      vertex -6169.95542803897 6873.59024120419 0.0
      vertex -6169.90542803991 6863.59024120423 0.0
      vertex -6169.86853889599 6872.9302526391 0.0
   endloop
endfacet
facet normal 0.0 0.0 1.0
   outer loop
      vertex -6169.90542803991 6863.59024120423 0.0
      vertex -6169.95542803897 6873.59024120419 0.0
      vertex -6169.90542803991 6851.29024120437 0.0
   endloop
endfacet
facet normal 0.0 0.0 1.0
   outer loop
      vertex -6169.86853889599 6872.9302526391 0.0
      vertex -6169.90542803991 6863.59024120423 0.0
      vertex -6169.82024260559 6864.23728881731 0.0
   endloop
endfacet
facet normal 0.0 0.0 1.0
   outer loop
      vertex -6169.86853889599 6872.9302526391 0.0
      vertex -6169.82024260559 6864.23728881731 0.0
      vertex -6169.61379281858 6872.31524120403 0.0
   endloop
endfacet
facet normal 0.0 0.0 1.0
   outer loop
      vertex -6169.61379281858 6872.31524120403 0.0
      vertex -6169.82024260559 6864.23728881731 0.0
      vertex -6169.5704915492 6864.84024120486 0.0
   endloop
endfacet
facet normal 0.0 0.0 1.0
   outer loop
      vertex -6169.61379281858 6872.31524120403 0.0
      vertex -6169.5704915492 6864.84024120486 0.0
      vertex -6169.2085503309 6871.78711891194 0.0
   endloop
endfacet
facet normal 0.0 0.0 1.0
   outer loop
      vertex -6169.2085503309 6871.78711891194 0.0
      vertex -6169.5704915492 6864.84024120486 0.0
      vertex -6169.17319499251 6865.35800815809 0.0
   endloop
endfacet
facet normal 0.0 0.0 1.0
   outer loop
      vertex -6169.2085503309 6871.78711891194 0.0
      vertex -6169.17319499251 6865.35800815809 0.0
      vertex -6168.68042803881 6871.38187642426 0.0
   endloop
endfacet
facet normal 0.0 0.0 1.0
   outer loop
      vertex -6168.68042803881 6871.38187642426 0.0
      vertex -6169.17319499251 6865.35800815809 0.0
      vertex -6168.65542803928 6865.75530471478 0.0
   endloop
endfacet
facet normal 0.0 0.0 1.0
   outer loop
      vertex -6168.68042803881 6871.38187642426 0.0
      vertex -6168.65542803928 6865.75530471478 0.0
      vertex -6168.06541660374 6871.12713034684 0.0
   endloop
endfacet
facet normal 0.0 0.0 1.0
   outer loop
      vertex -6168.06541660374 6871.12713034684 0.0
      vertex -6168.65542803928 6865.75530471478 0.0
      vertex -6168.05247565173 6866.00505577117 0.0
   endloop
endfacet
facet normal 0.0 0.0 1.0
   outer loop
      vertex -6168.06541660374 6871.12713034684 0.0
      vertex -6168.05247565173 6866.00505577117 0.0
      vertex -6167.40542803865 6871.04024120387 0.0
   endloop
endfacet
facet normal 0.0 0.0 1.0
   outer loop
      vertex -6167.40542803865 6871.04024120387 0.0
      vertex -6168.05247565173 6866.00505577117 0.0
      vertex -6167.40542803865 6866.09024120549 0.0
   endloop
endfacet
facet normal 0.0 0.0 1.0
   outer loop
      vertex -6167.40542803865 6871.04024120387 0.0
      vertex -6167.40542803865 6866.09024120549 0.0
      vertex -6166.75838042557 6866.00505577117 0.0
   endloop
endfacet
facet normal 0.0 0.0 1.0
   outer loop
      vertex -6167.40542803865 6871.04024120387 0.0
      vertex -6166.75838042557 6866.00505577117 0.0
      vertex -6166.74543947355 6871.12713034684 0.0
   endloop
endfacet
facet normal 0.0 0.0 1.0
   outer loop
      vertex -6166.74543947355 6871.12713034684 0.0
      vertex -6166.75838042557 6866.00505577117 0.0
      vertex -6166.15542803802 6865.75530471478 0.0
   endloop
endfacet
facet normal 0.0 0.0 1.0
   outer loop
      vertex -6166.74543947355 6871.12713034684 0.0
      vertex -6166.15542803802 6865.75530471478 0.0
      vertex -6166.13042803849 6871.38187642426 0.0
   endloop
endfacet
facet normal 0.0 0.0 1.0
   outer loop
      vertex -6166.13042803849 6871.38187642426 0.0
      vertex -6166.15542803802 6865.75530471478 0.0
      vertex -6165.63766108479 6865.35800815809 0.0
   endloop
endfacet
facet normal 0.0 0.0 1.0
   outer loop
      vertex -6166.13042803849 6871.38187642426 0.0
      vertex -6165.63766108479 6865.35800815809 0.0
      vertex -6165.6023057464 6871.78711891194 0.0
   endloop
endfacet
facet normal 0.0 0.0 1.0
   outer loop
      vertex -6165.6023057464 6871.78711891194 0.0
      vertex -6165.63766108479 6865.35800815809 0.0
      vertex -6165.2403645281 6864.84024120486 0.0
   endloop
endfacet
facet normal 0.0 0.0 1.0
   outer loop
      vertex -6165.6023057464 6871.78711891194 0.0
      vertex -6165.2403645281 6864.84024120486 0.0
      vertex -6165.19706325872 6872.31524120403 0.0
   endloop
endfacet
facet normal 0.0 0.0 1.0
   outer loop
      vertex -6165.19706325872 6872.31524120403 0.0
      vertex -6165.2403645281 6864.84024120486 0.0
      vertex -6164.99061347171 6864.23728881731 0.0
   endloop
endfacet
facet normal 0.0 0.0 1.0
   outer loop
      vertex -6165.19706325872 6872.31524120403 0.0
      vertex -6164.99061347171 6864.23728881731 0.0
      vertex -6164.9423171813 6872.9302526391 0.0
   endloop
endfacet
facet normal 0.0 0.0 1.0
   outer loop
      vertex -6164.9423171813 6872.9302526391 0.0
      vertex -6164.99061347171 6864.23728881731 0.0
      vertex -6164.90542803739 6863.59024120423 0.0
   endloop
endfacet
facet normal 0.0 0.0 1.0
   outer loop
      vertex -6164.9423171813 6872.9302526391 0.0
      vertex -6164.90542803739 6863.59024120423 0.0
      vertex -6164.85542803833 6873.59024120419 0.0
   endloop
endfacet
facet normal 0.0 0.0 1.0
   outer loop
      vertex -6169.82024260559 6851.93728881745 0.0
      vertex -6169.90542803991 6863.59024120423 0.0
      vertex -6169.90542803991 6851.29024120437 0.0
   endloop
endfacet
facet normal 0.0 0.0 1.0
   outer loop
      vertex -6169.90542803991 6863.59024120423 0.0
      vertex -6169.82024260559 6851.93728881745 0.0
      vertex -6169.82024260559 6862.94319359115 0.0
   endloop
endfacet
facet normal 0.0 0.0 1.0
   outer loop
      vertex -6169.82024260559 6862.94319359115 0.0
      vertex -6169.82024260559 6851.93728881745 0.0
      vertex -6169.5704915492 6852.540241205 0.0
   endloop
endfacet
facet normal 0.0 0.0 1.0
   outer loop
      vertex -6169.82024260559 6862.94319359115 0.0
      vertex -6169.5704915492 6852.540241205 0.0
      vertex -6169.5704915492 6862.3402412036 0.0
   endloop
endfacet
facet normal 0.0 0.0 1.0
   outer loop
      vertex -6169.5704915492 6862.3402412036 0.0
      vertex -6169.5704915492 6852.540241205 0.0
      vertex -6169.17319499251 6853.05800815823 0.0
   endloop
endfacet
facet normal 0.0 0.0 1.0
   outer loop
      vertex -6169.5704915492 6862.3402412036 0.0
      vertex -6169.17319499251 6853.05800815823 0.0
      vertex -6169.17319499251 6861.82247425037 0.0
   endloop
endfacet
facet normal 0.0 0.0 1.0
   outer loop
      vertex -6169.17319499251 6861.82247425037 0.0
      vertex -6169.17319499251 6853.05800815823 0.0
      vertex -6168.65542803928 6853.45530471492 0.0
   endloop
endfacet
facet normal 0.0 0.0 1.0
   outer loop
      vertex -6169.17319499251 6861.82247425037 0.0
      vertex -6168.65542803928 6853.45530471492 0.0
      vertex -6168.65542803928 6861.42517769368 0.0
   endloop
endfacet
facet normal 0.0 0.0 1.0
   outer loop
      vertex -6168.65542803928 6861.42517769368 0.0
      vertex -6168.65542803928 6853.45530471492 0.0
      vertex -6168.05247565173 6853.70505577131 0.0
   endloop
endfacet
facet normal 0.0 0.0 1.0
   outer loop
      vertex -6168.65542803928 6861.42517769368 0.0
      vertex -6168.05247565173 6853.70505577131 0.0
      vertex -6168.05247565173 6861.17542663729 0.0
   endloop
endfacet
facet normal 0.0 0.0 1.0
   outer loop
      vertex -6168.05247565173 6861.17542663729 0.0
      vertex -6168.05247565173 6853.70505577131 0.0
      vertex -6167.40542803865 6853.79024120563 0.0
   endloop
endfacet
facet normal 0.0 0.0 1.0
   outer loop
      vertex -6168.05247565173 6861.17542663729 0.0
      vertex -6167.40542803865 6853.79024120563 0.0
      vertex -6167.40542803865 6861.09024120297 0.0
   endloop
endfacet
facet normal 0.0 0.0 1.0
   outer loop
      vertex -6167.40542803865 6861.09024120297 0.0
      vertex -6167.40542803865 6853.79024120563 0.0
      vertex -6166.75838042557 6853.70505577131 0.0
   endloop
endfacet
facet normal 0.0 0.0 1.0
   outer loop
      vertex -6167.40542803865 6861.09024120297 0.0
      vertex -6166.75838042557 6853.70505577131 0.0
      vertex -6166.75838042557 6861.17542663729 0.0
   endloop
endfacet
facet normal 0.0 0.0 1.0
   outer loop
      vertex -6166.75838042557 6861.17542663729 0.0
      vertex -6166.75838042557 6853.70505577131 0.0
      vertex -6166.15542803802 6853.45530471492 0.0
   endloop
endfacet
facet normal 0.0 0.0 1.0
   outer loop
      vertex -6166.75838042557 6861.17542663729 0.0
      vertex -6166.15542803802 6853.45530471492 0.0
      vertex -6166.15542803802 6861.42517769368 0.0
   endloop
endfacet
facet normal 0.0 0.0 1.0
   outer loop
      vertex -6166.15542803802 6861.42517769368 0.0
      vertex -6166.15542803802 6853.45530471492 0.0
      vertex -6165.63766108479 6853.05800815823 0.0
   endloop
endfacet
facet normal 0.0 0.0 1.0
   outer loop
      vertex -6166.15542803802 6861.42517769368 0.0
      vertex -6165.63766108479 6853.05800815823 0.0
      vertex -6165.63766108479 6861.82247425037 0.0
   endloop
endfacet
facet normal 0.0 0.0 1.0
   outer loop
      vertex -6165.63766108479 6861.82247425037 0.0
      vertex -6165.63766108479 6853.05800815823 0.0
      vertex -6165.2403645281 6852.540241205 0.0
   endloop
endfacet
facet normal 0.0 0.0 1.0
   outer loop
      vertex -6165.63766108479 6861.82247425037 0.0
      vertex -6165.2403645281 6852.540241205 0.0
      vertex -6165.2403645281 6862.3402412036 0.0
   endloop
endfacet
facet normal 0.0 0.0 1.0
   outer loop
      vertex -6165.2403645281 6862.3402412036 0.0
      vertex -6165.2403645281 6852.540241205 0.0
      vertex -6164.99061347171 6851.93728881745 0.0
   endloop
endfacet
facet normal 0.0 0.0 1.0
   outer loop
      vertex -6165.2403645281 6862.3402412036 0.0
      vertex -6164.99061347171 6851.93728881745 0.0
      vertex -6164.99061347171 6862.94319359115 0.0
   endloop
endfacet
facet normal 0.0 0.0 1.0
   outer loop
      vertex -6164.99061347171 6862.94319359115 0.0
      vertex -6164.99061347171 6851.93728881745 0.0
      vertex -6164.90542803739 6851.29024120437 0.0
   endloop
endfacet
facet normal 0.0 0.0 1.0
   outer loop
      vertex -6164.99061347171 6862.94319359115 0.0
      vertex -6164.90542803739 6851.29024120437 0.0
      vertex -6164.90542803739 6863.59024120423 0.0
   endloop
endfacet
endsolid 20mmplate
